HIERARCHY
ROOT Bip001_Pelvis
{
  OFFSET 34.4345 95.6767 -26.8758
  CHANNELS 6 Xposition Yposition Zposition Zrotation Xrotation Yrotation
  JOINT Bip001_Spine
  {
    OFFSET 1.4188e-005 10.2191 -0.0116013
    CHANNELS 3 Zrotation Xrotation Yrotation
    JOINT Bip001_L_Thigh
    {
      OFFSET 11.0458 -10.2192 0.0116197
      CHANNELS 3 Zrotation Xrotation Yrotation
      JOINT Bip001_L_Calf
      {
        OFFSET -0.707118 -44.0221 0.360014
        CHANNELS 3 Zrotation Xrotation Yrotation
        JOINT Bip001_L_Foot
        {
          OFFSET -0.651902 -40.5938 -3.56146
          CHANNELS 3 Zrotation Xrotation Yrotation
          JOINT Bip001_L_Toe0
          {
            OFFSET 0.0530839 -10.2181 13.1504
            CHANNELS 3 Zrotation Xrotation Yrotation
            End Site
            {
              OFFSET -1.02532e-005 0 7.55606
            }
          }
        }
      }
    }
    JOINT Bip001_R_Thigh
    {
      OFFSET -11.0458 -10.2191 0.0115893
      CHANNELS 3 Zrotation Xrotation Yrotation
      JOINT Bip001_R_Calf
      {
        OFFSET 0.706994 -44.0221 0.35984
        CHANNELS 3 Zrotation Xrotation Yrotation
        JOINT Bip001_R_Foot
        {
          OFFSET 0.651786 -40.5938 -3.5613
          CHANNELS 3 Zrotation Xrotation Yrotation
          JOINT Bip001_R_Toe0
          {
            OFFSET -0.0531479 -10.2181 13.1504
            CHANNELS 3 Zrotation Xrotation Yrotation
            End Site
            {
              OFFSET -1.02894e-005 0 7.55606
            }
          }
        }
      }
    }
    JOINT Bip001_Spine1
    {
      OFFSET 1.87041e-005 14.5736 1.08638
      CHANNELS 3 Zrotation Xrotation Yrotation
      JOINT Bip001_Spine2
      {
        OFFSET 2.24614e-005 14.5058 -1.69078
        CHANNELS 3 Zrotation Xrotation Yrotation
        JOINT Bip001_Neck
        {
          OFFSET 2.20278e-005 15.3945 -0.489414
          CHANNELS 3 Zrotation Xrotation Yrotation
          JOINT Bip001_L_Clavicle
          {
            OFFSET 6.06036 -0.000579998 0.00836775
            CHANNELS 3 Zrotation Xrotation Yrotation
            JOINT Bip001_L_UpperArm
            {
              OFFSET 11.5509 -0.0600302 0.00193952
              CHANNELS 3 Zrotation Xrotation Yrotation
              JOINT Bip001_L_Forearm
              {
                OFFSET 25.9523 0.0806089 -2.15551
                CHANNELS 3 Zrotation Xrotation Yrotation
                JOINT Bip001_L_Hand
                {
                  OFFSET 32.2475 0.153767 1.63968
                  CHANNELS 3 Zrotation Xrotation Yrotation
                  JOINT Bip001_L_Finger0
                  {
                    OFFSET 6.04639 -2.20976 5.90322
                    CHANNELS 3 Zrotation Xrotation Yrotation
                    End Site
                    {
                      OFFSET 4.22375 -1.43895 0.606485
                    }
                  }
                  JOINT Bip001_L_Finger1
                  {
                    OFFSET 11.0826 -0.704819 -0.198153
                    CHANNELS 3 Zrotation Xrotation Yrotation
                    End Site
                    {
                      OFFSET 6.20027 -0.397518 -0.0787166
                    }
                  }
                }
              }
            }
          }
          JOINT Bip001_R_Clavicle
          {
            OFFSET -6.06037 -0.000563197 0.00835105
            CHANNELS 3 Zrotation Xrotation Yrotation
            JOINT Bip001_R_UpperArm
            {
              OFFSET -11.5509 -0.0599978 0.00190698
              CHANNELS 3 Zrotation Xrotation Yrotation
              JOINT Bip001_R_Forearm
              {
                OFFSET -25.9523 0.0806822 -2.15589
                CHANNELS 3 Zrotation Xrotation Yrotation
                JOINT Bip001_R_Hand
                {
                  OFFSET -32.2475 0.153859 1.63989
                  CHANNELS 3 Zrotation Xrotation Yrotation
                  JOINT Bip001_R_Finger0
                  {
                    OFFSET -6.04641 -2.20976 5.90317
                    CHANNELS 3 Zrotation Xrotation Yrotation
                    End Site
                    {
                      OFFSET -4.22376 -1.43895 0.60647
                    }
                  }
                  JOINT Bip001_R_Finger1
                  {
                    OFFSET -11.0826 -0.704794 -0.198182
                    CHANNELS 3 Zrotation Xrotation Yrotation
                    End Site
                    {
                      OFFSET -6.20028 -0.397504 -0.0787333
                    }
                  }
                }
              }
            }
          }
          JOINT Bip001_Head
          {
            OFFSET 1.09673e-005 11.2744 2.05948
            CHANNELS 3 Zrotation Xrotation Yrotation
            End Site
            {
              OFFSET 2.89576e-005 20.8808 -2.77728e-005
            }
          }
        }
      }
    }
  }
}
MOTION
Frames:	12
Frame Time:	0.04
34.2177 91.0703 -29.211 -6.1512 -9.73086 2.61367 0.778802 3.44899 -0.0620443 16.2579 -9.14965 12.8868 -2.07564 40.4071 -6.10653 4.56547 -20.7343 0.626906 1.17132 -4.4291 -0.530088 -1.28471 -3.7898 -1.61755 4.20994 30.1219 0.513144 -12.9599 -14.2433 -10.0353 4.01937 -12.8455 4.25071 1.56554 6.89677 -0.17162 1.56554 6.89687 -0.171621 5.10785 -7.03836 5.65666 -24.7686 12.309 -11.8377 -46.9659 37.8509 1.89101 19.1882 1.82295 -32.279 7.76159 3.01556 -3.54422 9.54166e-015 3.18055e-015 -1.59028e-015 9.54166e-015 6.36111e-015 -3.18055e-015 8.46814 10.9736 14.0488 70.1348 -49.2914 52.4226 -52.5607 -2.82522 96.0021 -30.1363 2.56283 4.26352 -3.44836e-033 7.95139e-016 2.48481e-016 1.65522e-032 1.59028e-015 -5.96354e-016 -8.91797 -4.47891 8.36113 
34.5257 91.566 -28.9541 -6.60521 -9.3427 4.89126 0.643251 3.27182 0.427544 16.5419 -9.7187 12.5834 -0.944652 39.3867 -8.33484 4.10446 -20.4938 0.552517 1.2829 -4.08962 -0.860571 -0.118101 -2.20229 -2.5585 3.54641 27.0009 0.579223 -12.6455 -12.3526 -10.977 4.12487 -13.0747 4.26605 1.26526 6.54841 0.820149 1.26526 6.54832 0.820147 4.56237 -7.61573 3.67348 -25.4256 12.4113 -10.846 -44.3826 38.5821 0.966508 17.6534 1.46203 -29.4839 7.47903 2.91357 -3.34663 -0 -3.18055e-015 -0 -0 -6.36111e-015 -0 5.59277 11.6267 17.8729 64.5298 -41.6431 55.9835 -51.3213 -0.0250047 87.9771 -30.6915 4.14322 3.89436 7.95139e-016 3.18055e-015 -3.97569e-016 4.41391e-032 6.36111e-015 -3.97569e-016 -8.98788 -2.20688 6.44201 
34.9344 92.3049 -28.8909 -6.39536 -8.18413 6.03591 0.310455 3.01496 1.08904 15.9229 -9.93784 11.1873 -1.0961 36.8287 -7.94153 3.29974 -19.6043 0.439189 1.32286 -3.5086 -1.07221 0.416585 -1.31429 -2.1853 3.02463 23.3937 0.131696 -12.0276 -10.1771 -11.7158 4.15721 -13.1318 4.25463 0.564558 6.0351 2.16626 0.564558 6.03515 2.16627 2.63878 -8.17734 2.00609 -24.4212 12.5607 -10.1206 -41.824 38.9252 0.0440116 16.3552 1.47491 -27.4439 6.22263 2.66287 -3.4002 -1.05934e-030 -9.54166e-015 -6.36111e-015 -5.29669e-031 -9.54167e-015 -3.18055e-015 4.17971 11.991 21.7861 48.5589 -31.3588 55.0083 -48.4289 -2.07123 68.7578 -31.7199 7.30517 5.09787 -1.59028e-015 0 -3.97569e-016 -1.59028e-015 0 -7.95139e-016 -7.79216 0.446095 4.29148 
35.3252 93.1491 -28.7216 -6.1296 -7.18878 7.16693 0.00330307 2.7892 1.73539 15.1537 -9.49966 10.4198 -0.835897 33.4142 -8.71004 3.22652 -17.9505 0.385481 1.29858 -3.41834 -1.16445 0.977791 0.453314 -2.76437 1.94264 18.5018 0.311055 -11.2196 -7.76535 -12.0955 4.14687 -13.0839 4.21059 -0.0782079 5.5772 3.47678 -0.0782108 5.57722 3.4768 0.921224 -8.04714 0.637642 -23.5721 12.1268 -9.43534 -39.5025 39.1338 -0.255437 15.6811 1.75433 -26.9157 4.39373 2.42946 -3.12195 -3.18055e-015 0 6.36111e-015 -0 0 3.18055e-015 1.63831 11.0484 23.6583 33.4796 -23.1716 56.22 -46.0231 -4.03191 47.9454 -37.9793 5.15538 4.99081 -7.95139e-016 3.18055e-015 5.96354e-016 -0 0 5.96354e-016 -7.28483 2.66035 2.60562 
35.6584 93.9003 -28.513 -5.77639 -5.956 8.68337 -0.37944 2.4619 2.00787 14.2619 -9.1616 10.2923 0.15536 30.0075 -10.5468 2.14987 -16.8077 0.248817 0.617432 -2.5704 -0.677885 1.58198 2.25647 -2.99821 0.947705 13.4222 -0.120428 -10.4146 -5.2994 -12.4224 4.09792 -12.961 4.17641 -0.845494 4.90918 4.02153 -0.846674 4.90917 4.02946 0.116633 -6.54654 -0.0360613 -23.1629 10.2676 -8.48267 -37.66 40.539 -0.172389 14.9987 1.01772 -26.3174 4.02351 1.84995 -2.90328 -3.18055e-015 -3.18055e-015 6.36111e-015 3.53113e-031 -3.18056e-015 6.36111e-015 1.85975 9.37507 23.588 65.6535 -28.0331 77.5912 -78.6502 12.1532 64.1453 -4.79426 -6.07822 -5.01064 -3.18055e-015 0 1.59028e-015 -3.18055e-015 3.18056e-015 1.59028e-015 -7.44851 4.08909 1.96902 
36.1968 94.4616 -28.4039 -4.70588 -4.55217 11.2191 -0.853056 1.98883 1.59436 12.1835 -8.72962 8.10024 0.527642 26.109 -10.6522 3.6591 -13.8249 0.303359 0.955828 -3.67915 -0.921184 0.975338 3.62316 -4.49989 0.643508 9.89678 -0.39598 -9.77779 -3.78978 -12.4291 4.00086 -12.7138 4.10488 -1.76243 3.95322 3.22122 -1.76243 3.95297 3.22122 2.0047 -2.47344 -0.637101 -23.3165 5.70969 -8.24597 -39.4302 41.817 2.03197 14.2384 0.290336 -25.5678 5.79722 1.6605 -2.28001 6.36111e-015 -6.36111e-015 3.18055e-015 7.95139e-015 -6.36111e-015 3.18055e-015 4.08378 6.30222 23.4904 66.5424 -30.4727 81.1791 -79.0711 11.3225 70.084 1.40578 -8.9432 -11.5917 -0 -6.36111e-015 -0 -3.18055e-015 -3.18056e-015 -0 -10.0615 3.88188 2.47529 
36.7267 94.8181 -28.2226 -3.87614 -4.70516 11.6745 -0.852018 1.71604 1.42277 10.8888 -6.75608 6.63078 -0.063077 23.3925 -9.31542 3.99819 -12.5147 0.268205 1.21309 -3.82859 -1.21903 0.0939637 5.70619 -4.96275 0.45898 7.28582 -0.541872 -9.29539 -2.67128 -11.8344 3.99736 -12.7136 4.1186 -1.74901 3.41062 2.87541 -1.74853 3.4107 2.87798 2.64395 0.835446 -1.38094 -22.6436 2.32062 -9.25174 -44.7832 43.3983 5.99821 14.4502 1.07555 -24.131 5.88629 2.31248 -1.89909 3.18055e-015 3.18055e-015 -6.36111e-015 3.18055e-015 3.18056e-015 -3.18055e-015 1.15012 2.04229 21.6349 59.2507 -31.1625 74.7668 -67.6459 7.87097 66.793 -7.88925 0.479108 3.87599 4.77083e-015 3.18055e-015 3.97569e-015 4.77083e-015 6.36111e-015 4.77083e-015 -11.6 4.15623 2.46137 
37.0089 95.0238 -28.2144 -3.39455 -4.87726 9.65898 -0.707519 1.80402 1.45076 10.2742 -4.96518 7.52057 -0.727198 21.4256 -8.10166 3.63391 -12.1937 0.250438 1.0563 -3.4135 -1.10954 -0.878544 5.95939 -3.91308 0.200735 6.59383 -0.473864 -8.83904 -2.25589 -10.8536 4.00223 -12.7316 4.13024 -1.45887 3.58931 2.92672 -1.46003 3.58927 2.92211 1.83899 -0.0775877 -1.61305 -23.5501 3.35634 -8.95048 -45.4071 43.7313 8.10977 16.4173 5.36344 -23.7369 2.37633 2.88269 -2.71458 4.77083e-015 -3.18055e-015 -0 6.36111e-015 3.18056e-015 -0 -1.92083 1.87661 20.1903 50.9233 -28.2068 67.7224 -58.2786 2.66538 64.5115 -19.8161 5.11535 6.01884 7.95139e-016 0 -2.88238e-015 -1.19271e-015 0 -4.17448e-015 -11.633 5.23397 2.08221 
37.1376 95.2206 -28.4296 -3.44186 -4.49953 7.37705 -0.599557 1.98372 1.30788 10.3089 -4.10661 8.31348 -1.8437 19.7164 -6.11964 3.30379 -11.8563 0.230144 1.05614 -3.07627 -1.20953 -1.40164 5.38532 -3.09318 -0.0217418 5.58974 -0.401015 -8.39021 -1.76939 -9.51828 3.94903 -12.6189 4.1265 -1.24541 3.95309 2.63884 -1.24541 3.95309 2.63883 -0.0577941 -3.69272 -1.32732 -22.6801 6.64689 -6.80511 -44.5748 45.6144 7.23646 17.1468 8.1964 -22.1076 0.413535 1.9564 -3.85848 4.77083e-015 -3.18055e-015 1.59028e-015 3.18055e-015 -3.18056e-015 3.18055e-015 -0.826462 5.52534 21.3131 46.5937 -27.2412 65.3426 -54.0887 -0.741103 66.4301 -13.968 4.13964 7.10777 -7.95139e-016 3.18055e-015 -3.97569e-016 -1.59028e-015 6.36111e-015 -1.19271e-015 -9.27177 6.91328 1.30957 
37.311 95.3677 -28.5702 -3.04553 -4.14965 4.84163 -0.586256 1.99459 1.22504 9.38502 -2.73892 8.95716 -1.85039 17.4647 -4.0195 2.23274 -11.4413 0.181744 0.992802 -2.65576 -1.21579 -2.38329 4.5516 -3.53007 -0.28939 5.68236 0.024421 -7.78966 -2.1606 -7.24556 3.88842 -12.508 4.1522 -1.21441 3.97606 2.47269 -1.21306 3.97599 2.47268 -0.219372 -5.09287 -1.8227 -22.4873 7.62872 -5.42123 -45.8968 47.4654 7.34092 16.6257 6.6177 -20.4138 -1.56655 1.78406 -2.9227 1.59028e-015 -3.18055e-015 7.95139e-016 1.59028e-015 -6.36111e-015 -7.95139e-016 2.26976 7.78346 22.7725 42.041 -25.5613 62.6213 -51.9315 -1.12095 71.875 -5.71062 3.80692 7.69032 -0 0 2.38542e-015 1.59028e-015 0 -0 -7.98012 6.3158 0.404449 
37.4178 95.3868 -28.6199 -2.3527 -4.23409 2.63633 -0.580442 1.99209 1.16257 7.98558 -1.16979 8.56324 -1.55663 15.3896 -1.56114 1.92478 -10.6117 0.163933 1.06918 -2.76447 -1.20723 -3.60347 3.77237 -4.91496 -0.529369 6.81945 0.718586 -7.19284 -3.39933 -4.71652 3.81261 -12.3551 4.16297 -1.20121 3.97188 2.34784 -1.20125 3.97188 2.34835 0.809594 -5.43804 -2.74262 -23.5249 7.41022 -4.03653 -47.2856 47.0898 7.44316 16.1258 5.16384 -20.0678 -1.951 2.28792 -1.09653 1.59028e-015 6.36111e-015 -7.95139e-016 -1.59028e-015 0 -2.38542e-015 4.37453 9.16063 24.6891 40.1984 -23.884 57.7582 -56.1121 1.49707 81.2693 -2.26608 0.7809 8.20205 1.59028e-015 -3.18055e-015 -0 1.59028e-015 -3.18056e-015 4.77083e-015 -7.72373 4.9193 -0.395203 
37.4486 95.3788 -28.6089 -1.63779 -4.45038 0.286365 -0.527821 2.0389 1.15692 6.76272 0.529129 10.6533 -1.15362 13.3863 -1.50183 1.62373 -9.89523 0.143041 1.02419 -2.76863 -1.1005 -4.84202 2.63124 -5.10066 -0.689712 8.69234 1.1546 -6.74883 -4.64867 -2.9521 3.73388 -12.2039 4.18953 -1.08988 4.06717 2.34488 -1.0933 4.06704 2.33959 1.91825 -6.3117 -3.32061 -24.8318 7.90005 -3.15873 -48.1233 45.2235 6.87737 15.5466 4.48384 -20.2582 -0.10016 2.36967 -0.662109 1.59028e-015 -9.54166e-015 4.77083e-015 4.77083e-015 -9.54167e-015 3.18055e-015 5.72233 10.7328 25.144 38.7887 -20.3655 51.7147 -60.7467 2.6026 90.0093 -2.51541 -1.26313 9.37712 -1.59028e-015 9.54166e-015 1.59028e-015 -3.18055e-015 9.54167e-015 -1.59028e-015 -8.06409 4.49241 -0.598049 
